<?xml version="1.0" encoding="utf-8"?>
<!-- Generator: Adobe Illustrator 19.2.0, SVG Export Plug-In . SVG Version: 6.00 Build 0)  -->
<svg version="1.1" id="logo" xmlns="http://www.w3.org/2000/svg" xmlns:xlink="http://www.w3.org/1999/xlink" x="0px" y="0px"
	 viewBox="0 0 140 40" style="enable-background:new 0 0 140 40;" xml:space="preserve">
<style type="text/css">
	.st0{enable-background:new    ;}
	.st1{fill:#4470fe;
	     }
</style>
<g class="st0">
	<path class="st1" d="M43.1,13.5h3.8c2.9,0,4.7,2.2,4.7,4.6c0,2.3-1.7,4.5-4.7,4.5h-2.1v4.7h-1.7L43.1,13.5L43.1,13.5z M46.5,21
		c2.1,0,3.3-1,3.3-3s-1.2-3-3.3-3h-1.7v6H46.5z"/>
	<path class="st1" d="M54.8,13.5h1.7v12.2h4.8v1.6h-6.6V13.5H54.8z"/>
	<path class="st1" d="M73,24h-6.4l-1.3,3.2h-1.9L69,13.4h1.5l5.6,13.8h-1.9L73,24z M69.8,15.8l-2.6,6.8h5.2L69.8,15.8z"/>
	<path class="st1" d="M80,15.1h-3.4v-1.6h8.6v1.6h-3.4v12.2h-1.7V15.1H80z"/>
	<path class="st1" d="M88.2,13.5h7.1v1.6h-5.4v4.4h5.4v1.6h-5.4v4.5h5.4v1.6h-7.1V13.5z"/>
</g>
<g class="st0">
	<path class="st1" d="M104.9,13.5h1.7v13.8h-1.7V13.5z"/>
	<path class="st1" d="M121.8,26.1c-1.1,0.8-2.6,1.3-4.4,1.3c-4.7,0-7.3-3.7-7.3-7.1c0-3.4,2.6-7.1,7.3-7.1s7.3,3.7,7.3,7.1
		c0,1.7-0.6,3.4-1.8,4.7l1.4,1.4l-1.1,1.1L121.8,26.1z M121.7,23.8c0.7-0.9,1.2-2.1,1.2-3.4c0-3.3-2.6-5.5-5.5-5.5s-5.5,2.2-5.5,5.5
		s2.6,5.5,5.5,5.5c1.1,0,2.2-0.3,3.1-1l-1.4-1.4l1.1-1.1L121.7,23.8z"/>
</g>
<path id="Shape" class="st1" d="M16,4.4c-0.3,0-0.6,0-0.8,0C7.3,4.8,1,11.7,1,20l0,0l0,0l0,0c0,0.1,0,0.1,0,0.2c0,0,0,0,0,0.1v0.1
	v0.1v0.1v0.1v0.1v0.1V21v0.1v0.1v0.1v0.1v0.1c0,0,0,0,0,0.1c0,0.2,0,0.3,0,0.5l0,0v0.1l0,0v0.1l0,0v0.1l0,0c0,0.1,0,0.1,0,0.2l0,0
	c1.1,6.7,6.3,11.9,12.8,12.8l0.2-2.6l0.2-3.5l0.1-1.5c0-0.4-0.3-0.7-0.7-0.9c-2.6-1-4.5-3.9-4.5-7.3c0-4.3,3-7.7,6.7-7.7l0,0l0,0
	c3.7,0,6.7,3.4,6.7,7.7c0,3.4-1.9,6.3-4.5,7.3c-0.4,0.2-0.7,0.5-0.7,0.9l0.1,1.5l0.2,3.5l0.2,2.6c2.2-0.3,4.2-1.1,5.9-2.2l1.4,1.6
	c1,1,2.7,1,3.7,0s1-2.7,0-3.7l-1.3-1.4c1.7-2.3,2.9-5,3.2-8.1l0,0c0-0.1,0-0.1,0-0.2l0,0c0-0.2,0-0.3,0-0.5l0,0v-0.1v-0.1v-0.1v-0.1
	v-0.1v-0.1v-0.1v-0.1c0,0,0,0,0-0.1s0-0.1,0-0.2l0,0l0,0l0,0C31,11.4,24.3,4.4,16,4.4L16,4.4z"/>
</svg>
